<svg xmlns="http://www.w3.org/2000/svg" viewBox="214.2 194.8 575.8 575.8">
  <style>
    path { fill: #1a1a1f; }
    @media (prefers-color-scheme: dark) {
      path { fill: #e9e3d3; }
    }
  </style>
  <path d="M566.563354,690.589844 C588.663818,688.261414 609.659851,683.439575 629.863220,675.183655 C657.832275,663.754272 682.578979,647.513672 704.095276,626.319702 C708.903137,621.583862 711.737732,621.760803 715.523865,626.617859 C718.343201,630.234802 716.218933,632.784241 714.061096,635.427734 C696.632568,656.778870 676.387329,674.884033 652.779785,689.240051 C622.718201,707.520813 590.310486,719.213928 555.368591,722.968567 C496.669769,729.275940 442.470337,716.124634 393.499268,682.965149 C339.137756,646.155762 304.500366,595.228882 292.466492,530.993347 C274.970947,437.603638 302.600220,358.521942 374.777740,296.123932 C408.749634,266.754974 448.782318,248.992233 493.185883,243.261765 C582.493835,231.736206 656.206482,261.481384 714.184265,330.309479 C717.972534,334.806610 717.661926,336.868439 713.282349,340.758270 C709.739319,343.904999 707.194824,342.323883 704.353516,339.478638 C667.955688,303.029816 624.026611,281.474518 572.990173,275.701874 C529.199280,270.748810 487.437408,278.911713 448.385864,299.804718 C411.818420,319.368713 383.535370,347.384460 363.739624,383.746735 C343.720978,420.518585 335.154175,459.812592 339.010590,501.701569 C347.256378,591.268738 415.402649,668.872375 508.389221,687.383301 C527.468628,691.181519 546.754211,691.495361 566.563354,690.589844 z" />
  <path d="M526.204163,339.853760 C533.588135,339.103027 540.529236,338.310669 547.490295,337.780090 C549.844971,337.600616 552.957825,336.875366 553.895447,340.096466 C554.896423,343.535461 551.929138,344.628662 549.538330,345.779846 C524.031555,358.061401 504.205658,376.624817 489.647034,400.734711 C474.799713,425.322693 466.656799,451.964020 466.970245,480.877533 C467.590546,538.094177 491.750427,582.368774 540.112854,613.212280 C543.194946,615.177979 546.518433,616.766663 549.739075,618.513306 C552.113525,619.801025 554.864807,621.027405 553.996338,624.388550 C553.167908,627.594849 550.244934,627.217102 547.770569,627.099121 C501.607849,624.898315 462.715515,607.520142 433.664825,570.936401 C410.785034,542.123596 399.544708,508.810059 403.106750,472.158691 C408.427917,417.406769 436.648651,377.402893 485.922577,352.610413 C498.491974,346.286011 511.952942,342.472260 526.204163,339.853760 z" />
</svg>
